<svg width="112" height="25" viewBox="0 0 112 25" fill="none" xmlns="http://www.w3.org/2000/svg">
<path d="M16.9725 15.5718V7.42403C16.9725 5.11277 15.7352 4.01551 13.6574 4.01551C11.9298 4.01551 10.4357 5.04274 9.78197 6.06996C9.36174 4.78593 8.31117 4.01551 6.65361 4.01551C4.926 4.01551 3.43186 5.08943 2.96494 5.76646V4.29566H0V15.5718H2.96494V7.98433C3.40852 7.35399 4.27232 6.65361 5.29954 6.65361C6.51353 6.65361 6.98045 7.40068 6.98045 8.45125V15.5718H9.96874V7.96099C10.389 7.35399 11.2528 6.65361 12.3033 6.65361C13.5173 6.65361 13.9843 7.40068 13.9843 8.45125V15.5718H16.9725Z" fill="black"/>
<path d="M25.1101 15.8519C28.8454 15.8519 31.0866 13.1438 31.0866 9.92205C31.0866 6.72365 28.8454 4.01551 25.1101 4.01551C21.3981 4.01551 19.1568 6.72365 19.1568 9.92205C19.1568 13.1438 21.3981 15.8519 25.1101 15.8519ZM25.1101 13.2138C23.2657 13.2138 22.2385 11.6963 22.2385 9.92205C22.2385 8.1711 23.2657 6.65361 25.1101 6.65361C26.9544 6.65361 28.005 8.1711 28.005 9.92205C28.005 11.6963 26.9544 13.2138 25.1101 13.2138Z" fill="black"/>
<path d="M43.862 15.5718V7.6108C43.862 5.41627 42.6714 4.01551 40.1967 4.01551C38.3524 4.01551 36.9749 4.90266 36.2512 5.76646V4.29566H33.2863V15.5718H36.2512V7.98433C36.7415 7.3073 37.652 6.65361 38.8193 6.65361C40.08 6.65361 40.8971 7.19057 40.8971 8.75475V15.5718H43.862Z" fill="black"/>
<path d="M52.0355 15.8519C55.7708 15.8519 58.0121 13.1438 58.0121 9.92205C58.0121 6.72365 55.7708 4.01551 52.0355 4.01551C48.3235 4.01551 46.0823 6.72365 46.0823 9.92205C46.0823 13.1438 48.3235 15.8519 52.0355 15.8519ZM52.0355 13.2138C50.1911 13.2138 49.1639 11.6963 49.1639 9.92205C49.1639 8.1711 50.1911 6.65361 52.0355 6.65361C53.8798 6.65361 54.9304 8.1711 54.9304 9.92205C54.9304 11.6963 53.8798 13.2138 52.0355 13.2138Z" fill="black"/>
<path d="M63.1766 11.9532V7.96099C63.6669 7.21391 64.7642 6.65361 65.7213 6.65361C67.4489 6.65361 68.5929 7.98433 68.5929 9.9454C68.5929 11.9065 67.4489 13.2138 65.7213 13.2138C64.7642 13.2138 63.6669 12.6769 63.1766 11.9532ZM63.1766 15.5718V14.1243C64.0638 15.2449 65.3011 15.8519 66.6552 15.8519C69.5034 15.8519 71.6512 13.7041 71.6512 9.9454C71.6512 6.25673 69.5267 4.01551 66.6552 4.01551C65.3245 4.01551 64.0638 4.59916 63.1766 5.74312V0H60.2117V15.5718H63.1766Z" fill="black"/>
<path d="M83.6263 15.5718V8.28783C83.6263 5.04274 81.2683 4.01551 78.7003 4.01551C76.926 4.01551 75.1517 4.57582 73.7742 5.78981L74.8949 7.77422C75.852 6.88707 76.9726 6.4435 78.1866 6.4435C79.6808 6.4435 80.6613 7.19057 80.6613 8.33452V9.85201C79.9142 8.96486 78.5835 8.4746 77.0894 8.4746C75.2917 8.4746 73.1673 9.47848 73.1673 12.1166C73.1673 14.6379 75.2917 15.8519 77.0894 15.8519C78.5602 15.8519 79.8909 15.315 80.6613 14.4045V15.5718H83.6263ZM78.28 13.8442C77.1127 13.8442 76.1555 13.2372 76.1555 12.1866C76.1555 11.0893 77.1127 10.4824 78.28 10.4824C79.2372 10.4824 80.1711 10.8092 80.6613 11.4629V12.8636C80.1711 13.5173 79.2372 13.8442 78.28 13.8442Z" fill="black"/>
<path d="M97.1429 15.5718V7.6108C97.1429 5.41627 95.9522 4.01551 93.4775 4.01551C91.6332 4.01551 90.2558 4.90266 89.5321 5.76646V4.29566H86.5671V15.5718H89.5321V7.98433C90.0223 7.3073 90.9328 6.65361 92.1001 6.65361C93.3608 6.65361 94.1779 7.19057 94.1779 8.75475V15.5718H97.1429Z" fill="black"/>
<path d="M111.106 15.5718L106.507 9.40844L110.966 4.29566H107.324L103.052 9.31505V0H100.087V15.5718H103.052V12.6769L104.406 11.2294L107.394 15.5718H111.106Z" fill="black"/>
<path fill-rule="evenodd" clip-rule="evenodd" d="M109.327 20.6803H110.076V23.0762H110.118L111.091 21.9253L111.781 21.9235L110.714 23.1815L112 24.7547H111.138L110.086 23.2904H110.076V24.7547H109.327V20.6803Z" fill="#808080"/>
<path fill-rule="evenodd" clip-rule="evenodd" d="M73.7482 20.8625V23.0967C73.7482 23.8579 73.9722 24.2739 74.5992 24.2739C75.1998 24.2739 75.4399 23.7695 75.4399 23.1408V20.8625H76.1473V23.2799C76.1473 24.2627 75.5078 24.8196 74.5773 24.8196C73.512 24.8196 72.958 24.3016 72.958 23.2409V20.8625H73.7482Z" fill="#808080"/>
<path fill-rule="evenodd" clip-rule="evenodd" d="M77.8007 22.3018C78.0539 22.0355 78.4064 21.9075 78.7601 21.9075C79.416 21.9075 79.763 22.2623 79.763 22.9625V24.7523H79.0188V23.0467C79.0188 22.6572 78.8453 22.4014 78.4575 22.4014C78.0932 22.4014 77.8068 22.6406 77.8068 23.0967V24.7523H77.0617V21.9736H77.8007V22.3018Z" fill="#808080"/>
<path fill-rule="evenodd" clip-rule="evenodd" d="M80.6387 24.7523H81.3842V21.9736H80.6387V24.7523ZM80.5657 21.1404C80.5657 20.9295 80.7447 20.7123 80.9979 20.7123C81.2554 20.7123 81.4563 20.9238 81.4563 21.1404C81.4563 21.379 81.2837 21.6071 81.0085 21.6071C80.7447 21.6071 80.5657 21.379 80.5657 21.1404Z" fill="#808080"/>
<path fill-rule="evenodd" clip-rule="evenodd" d="M83.0333 24.7523L81.8404 21.9618H82.6303C82.8717 22.6011 83.1225 23.2023 83.3574 23.9746H83.3687C83.622 23.2023 83.8603 22.6011 84.1178 21.9618H84.8169L83.5541 24.7523H83.0333Z" fill="#808080"/>
<path fill-rule="evenodd" clip-rule="evenodd" d="M87.035 23.0301C87.0642 22.6065 86.9126 22.3184 86.5434 22.3184C86.1157 22.3184 85.924 22.6572 85.9322 23.0301H87.035ZM85.9197 23.4301C85.903 23.9529 86.2728 24.3411 86.7382 24.3411C87.0143 24.3411 87.3043 24.2467 87.4903 24.1185L87.7031 24.508C87.322 24.73 86.9233 24.8196 86.604 24.8196C85.7575 24.8196 85.1244 24.2244 85.1244 23.3076C85.1244 22.4515 85.7514 21.9075 86.5534 21.9075C87.4279 21.9075 87.7929 22.6017 87.7378 23.4301H85.9197Z" fill="#808080"/>
<path fill-rule="evenodd" clip-rule="evenodd" d="M89.2006 22.4626H89.2113L89.3629 22.246C89.4463 22.1232 89.6146 21.9075 89.8444 21.9075C90.0127 21.9075 90.1929 21.9965 90.35 22.157L90.0687 22.6684C89.9454 22.6065 89.8666 22.5739 89.7162 22.5739C89.4581 22.5739 89.2061 22.7797 89.2061 23.3794V24.7523H88.4582V21.9736H89.2006V22.4626Z" fill="#808080"/>
<path fill-rule="evenodd" clip-rule="evenodd" d="M92.3397 22.4958C92.172 22.3736 91.9979 22.3184 91.8627 22.3184C91.695 22.3184 91.5264 22.4125 91.5264 22.6017C91.5264 22.824 91.7961 22.9522 92.1096 23.1791C92.5089 23.475 92.6255 23.7637 92.6255 24.018C92.6255 24.4084 92.1933 24.8196 91.5775 24.8196C91.1904 24.8196 90.9045 24.6856 90.6419 24.5025L90.8771 24.1185C91.0443 24.2527 91.285 24.3852 91.4865 24.3852C91.7011 24.3852 91.8907 24.2739 91.8907 24.0407C91.8907 23.7794 91.5988 23.6352 91.3307 23.4461C91.0108 23.2298 90.7928 23.0183 90.7928 22.6744C90.7928 22.2346 91.2178 21.9075 91.7672 21.9075C92.0767 21.9075 92.3783 21.9848 92.5817 22.1634L92.3397 22.4958Z" fill="#808080"/>
<path fill-rule="evenodd" clip-rule="evenodd" d="M94.4637 23.2741C94.0999 23.3909 93.9149 23.5963 93.9149 23.9128C93.9149 24.1577 94.0719 24.3245 94.2527 24.3245C94.5486 24.3245 94.9357 23.9574 94.8804 23.1408L94.4637 23.2741ZM94.7005 24.4859C94.4981 24.6528 94.2402 24.8196 93.9833 24.8196C93.5453 24.8196 93.1801 24.4859 93.1801 23.9746C93.1801 23.4461 93.5679 23.1519 94.2186 22.9625L94.8804 22.7679C94.8411 22.5127 94.6107 22.3519 94.3708 22.3519C94.05 22.3519 93.8257 22.4687 93.6297 22.6355L93.3877 22.2852C93.7362 22.002 94.0774 21.9075 94.4637 21.9075C94.9808 21.9075 95.6145 22.0732 95.6145 22.9411V24.0742C95.6145 24.2968 95.6419 24.5586 95.7323 24.7523H94.9421C94.8846 24.6576 94.8685 24.4971 94.8685 24.3469L94.7005 24.4859Z" fill="#808080"/>
<path fill-rule="evenodd" clip-rule="evenodd" d="M96.45 24.7523H97.1961V20.668H96.45V24.7523Z" fill="#808080"/>
<path fill-rule="evenodd" clip-rule="evenodd" d="M103.8 23.2741C103.435 23.3909 103.25 23.5963 103.25 23.9128C103.25 24.1577 103.407 24.3245 103.587 24.3245C103.883 24.3245 104.27 23.9574 104.216 23.1408L103.8 23.2741ZM104.034 24.4859C103.833 24.6528 103.575 24.8196 103.317 24.8196C102.88 24.8196 102.515 24.4859 102.515 23.9746C102.515 23.4461 102.902 23.1519 103.553 22.9625L104.216 22.7679C104.175 22.5127 103.946 22.3519 103.703 22.3519C103.385 22.3519 103.16 22.4687 102.964 22.6355L102.722 22.2852C103.07 22.002 103.413 21.9075 103.8 21.9075C104.315 21.9075 104.948 22.0732 104.948 22.9411V24.0742C104.948 24.2968 104.976 24.5586 105.065 24.7523H104.276C104.221 24.6576 104.202 24.4971 104.202 24.3469L104.034 24.4859Z" fill="#808080"/>
<path fill-rule="evenodd" clip-rule="evenodd" d="M106.524 22.3018C106.777 22.0355 107.13 21.9075 107.483 21.9075C108.139 21.9075 108.486 22.2623 108.486 22.9625V24.7523H107.741V23.0467C107.741 22.6572 107.567 22.4014 107.18 22.4014C106.815 22.4014 106.53 22.6406 106.53 23.0967V24.7523H105.784V21.9736H106.524V22.3018Z" fill="#808080"/>
<path fill-rule="evenodd" clip-rule="evenodd" d="M99.9163 24.2844H100.32C100.758 24.2844 101.089 24.057 101.089 23.6241C101.089 23.1679 100.747 22.9737 100.315 22.9737H99.9163V24.2844ZM99.9163 22.4958H100.164C100.619 22.4958 100.928 22.2071 100.928 21.8451C100.928 21.5012 100.668 21.3516 100.327 21.3516H99.9163V22.4958ZM99.1268 24.7629V20.8731H100.545C101.207 20.8731 101.673 21.173 101.673 21.7009C101.673 22.3229 101.162 22.5794 100.888 22.6512V22.6623C101.376 22.685 101.919 23.0177 101.919 23.6123C101.919 24.2844 101.352 24.7629 100.428 24.7629H99.1268Z" fill="#808080"/>
</svg>
