<svg width="64" height="64" viewBox="0 0 64 64" fill="none" xmlns="http://www.w3.org/2000/svg">
<circle cx="32" cy="32" r="32" fill="url(#paint0_linear_13587_11381)"/>
<path fill-rule="evenodd" clip-rule="evenodd" d="M45.3332 32C45.3332 39.3638 39.3636 45.3333 31.9998 45.3333C24.636 45.3333 18.6665 39.3638 18.6665 32C18.6665 24.6362 24.636 18.6666 31.9998 18.6666C39.3636 18.6666 45.3332 24.6362 45.3332 32ZM38.7622 29.4689C39.1527 29.0784 39.1527 28.4452 38.7622 28.0547C38.3717 27.6642 37.7385 27.6642 37.348 28.0547L30.984 34.4187L27.7627 31.1974C27.3722 30.8069 26.7391 30.8069 26.3485 31.1974C25.958 31.5879 25.958 32.2211 26.3485 32.6116L30.2769 36.54L30.984 37.2471L31.6911 36.54L38.7622 29.4689Z" fill="white"/>
<defs>
<linearGradient id="paint0_linear_13587_11381" x1="32" y1="0" x2="32" y2="64" gradientUnits="userSpaceOnUse">
<stop stop-color="#48E11A"/>
<stop offset="1" stop-color="#258D05"/>
</linearGradient>
</defs>
</svg>
